Coordinates
version=1
nRows=10
nColumns=34
inDegrees=yes

Units are S.I. units (second, meters, Newtons, ...)
If the header above contains a line with 'inDegrees', this indicates whether rotational values are in degrees (yes) or radians (no).

endheader
time	pelvis_tilt	pelvis_list	pelvis_rotation	pelvis_tx	pelvis_ty	pelvis_tz	hip_flexion_r	hip_adduction_r	hip_rotation_r	knee_angle_r	ankle_angle_r	subtalar_angle_r	mtp_angle_r	hip_flexion_l	hip_adduction_l	hip_rotation_l	knee_angle_l	ankle_angle_l	subtalar_angle_l	mtp_angle_l	lumbar_extension	lumbar_bending	lumbar_rotation	arm_flex_r	arm_add_r	arm_rot_r	elbow_flex_r	pro_sup_r	arm_flex_l	arm_add_l	arm_rot_l	elbow_flex_l	pro_sup_l
      0.00000000	     90.00000018	    -32.77927750	     -2.43042359	     -0.01407568	      0.30489413	     -0.01126965	    119.99999986	     30.00000025	     38.39945282	     84.26110588	    -19.24066411	    -35.00000000	      0.00000000	    119.99999986	     30.00000025	     39.99999995	     78.09152341	     -3.56150632	    -35.00000000	      0.00000000	     90.00000018	     -4.62209115	     66.56602331	     -7.66827488	     32.23860007	      0.45822210	      6.64145014	      0.00000000	     -4.93847168	     13.54904372	     -1.19741924	      0.00036042	      0.00000000
      0.01666670	     90.00000018	    -49.91131123	    -22.06283854	      0.01071304	      0.31904967	     -0.12928748	    119.99999986	     30.00000025	     38.61849872	    140.00000000	     50.00000000	    -35.00000000	      0.00000000	    119.99999986	     14.42202124	    -39.99999995	    140.00000000	     50.00000000	    -35.00000000	      0.00000000	     79.59448630	     90.00000018	     57.50987513	    -45.41222825	     30.26516767	     -0.91157844	      0.00000000	      0.00000000	    -43.93181501	     27.56289814	     -2.22806653	      0.00000000	      0.00000000
      0.03333330	     15.43194281	    -18.78079717	   -146.04975281	      0.07947338	      0.45014555	     -0.03264473	    119.99999986	     30.00000025	     29.57786159	    140.00000000	     50.00000000	    -35.00000000	      0.00000000	    119.99999986	     15.94810872	    -39.99999995	    140.00000000	     50.00000000	    -35.00000000	      0.00000000	     81.62655228	     90.00000018	     59.54194180	    -43.43553675	     27.55707824	     -0.40985638	      1.72615094	      0.31046035	    -42.69042148	     27.05144254	     -1.92279271	      2.39846264	      0.36882583
      0.05000000	     11.21932258	    -44.83689583	   -143.59244988	      0.09580659	      0.44186447	     -0.08965850	    119.99999986	     30.00000025	     19.62916837	    140.00000000	     50.00000000	    -35.00000000	      0.00000000	    119.99999986	     14.51131477	    -39.99999995	    140.00000000	     50.00000000	    -35.00000000	      0.00000000	     80.47284557	     90.00000018	     58.38823562	    -46.21550755	     27.51472845	     -0.07153256	      0.31364462	      0.46537378	    -45.74993844	     24.89787937	     -1.84726042	      1.23214016	      0.67044509
      0.06666670	      0.27269670	    -90.00000018	   -148.39039058	      0.12093715	      0.36294448	     -0.09881022	    119.99999986	     30.00000025	     33.44401149	    140.00000000	     50.00000000	    -35.00000000	      0.00000000	    119.99999986	     14.87718388	    -39.99999995	    140.00000000	     50.00000000	    -35.00000000	      0.00000000	     80.97172730	     90.00000018	     58.88711804	    -47.09619113	     28.07529936	      0.43602169	      0.00000000	      0.61937176	    -46.51056589	     25.94412227	     -1.94632838	      0.00000000	      0.70556317
      0.08333330	    -62.06623630	    -20.87767529	   -270.70793654	      0.09085446	      0.46353888	      0.05704563	    119.99999986	     30.00000025	     17.19926747	    140.00000000	     50.00000000	    -35.00000000	      0.00000000	    119.99999986	     13.74019120	    -39.99999995	    140.00000000	     50.00000000	    -35.00000000	      0.00000000	     79.50240161	     90.00000018	     57.41779678	    -45.52731472	     25.94970966	      6.15131440	      0.00000000	      4.28918973	    -44.47357344	     27.34660899	     -0.23584209	      0.00000000	      3.20941637
      0.10000000	    -87.94789834	    -90.00000018	   -190.61483143	      0.05211127	      0.26829782	     -0.08389849	    119.99999986	    -10.75743163	    -39.99999995	    140.00000000	     50.00000000	    -35.00000000	      0.00000000	    119.99999986	      3.24951222	    -39.99999995	    140.00000000	     50.00000000	    -35.00000000	      0.00000000	     83.32331073	     90.00000018	     61.23881536	    -42.54005731	     29.64629304	    -43.79627900	      6.24152848	      0.00000000	    -40.10641217	     21.58002657	   -195.07755646	      0.00021984	    119.74817918
      0.11666670	    -90.00000018	    -56.92475613	   -223.12021323	      0.12575647	      0.30655659	     -0.01475766	    119.99999986	    -13.08510841	    -39.99999995	    140.00000000	     50.00000000	    -35.00000000	      0.00000000	    119.99999986	      4.44560105	    -39.99999995	    140.00000000	     50.00000000	    -35.00000000	      0.00000000	     82.90836514	     90.00000018	     60.82387263	    -42.08864412	     27.89748560	    -40.22058896	      0.00000000	      0.75815536	    -40.15548840	     23.22323558	   -193.14674768	      0.00000000	    119.74817918
      0.13333330	    -64.15723162	    -28.88192721	   -269.41032978	      0.09919160	      0.43173229	      0.05424407	    119.99999986	     -6.95396694	    -39.99999995	    140.00000000	     50.00000000	    -35.00000000	      0.00000000	    119.99999986	      6.06546330	    -39.99999995	    140.00000000	     50.00000000	    -35.00000000	      0.00000000	     81.32701880	     90.00000018	     59.24255690	    -43.96400136	     23.85703626	     36.60393768	      0.00000000	     50.11656384	    -40.03125987	     26.49149816	   -115.32906131	      0.00000000	    119.74817918
      0.15000000	    -90.00000018	    -26.50952807	   -226.60790552	      0.12002691	      0.31234086	      0.04887529	    119.99999986	     -8.22534397	    -39.99999995	    140.00000000	     50.00000000	    -35.00000000	      0.00000000	    119.99999986	      5.24700716	    -39.99999995	    140.00000000	     50.00000000	    -35.00000000	      0.00000000	     82.42246092	     90.00000018	     60.33800123	    -45.06861087	     26.92659516	     33.62669297	      0.00000000	     50.37941393	    -40.40613310	     24.96252093	   -117.18328929	      0.00000000	    119.74817918
